<svg width="25" height="20" viewBox="0 0 25 20" fill="none" xmlns="http://www.w3.org/2000/svg">
<path d="M17.8177 3.7633L16.3203 1.39742C16.0047 1.02955 15.5722 0.800049 15.0873 0.800049H9.9123C9.42743 0.800049 8.99487 1.02955 8.6793 1.39742L7.18193 3.7633C6.86637 4.13174 6.45968 4.40005 5.9748 4.40005H2.5998C2.12241 4.40005 1.66458 4.58969 1.32701 4.92726C0.989447 5.26482 0.799805 5.72266 0.799805 6.20005V17C0.799805 17.4774 0.989447 17.9353 1.32701 18.2728C1.66458 18.6104 2.12241 18.8 2.5998 18.8H22.3998C22.8772 18.8 23.335 18.6104 23.6726 18.2728C24.0102 17.9353 24.1998 17.4774 24.1998 17V6.20005C24.1998 5.72266 24.0102 5.26482 23.6726 4.92726C23.335 4.58969 22.8772 4.40005 22.3998 4.40005H19.0811C18.5945 4.40005 18.1332 4.13174 17.8177 3.7633Z" stroke="#D75C41" stroke-width="1.6" stroke-linecap="round" stroke-linejoin="round"/>
<path d="M12.5 15.2001C14.9853 15.2001 17 13.1854 17 10.7001C17 8.21479 14.9853 6.20007 12.5 6.20007C10.0147 6.20007 8 8.21479 8 10.7001C8 13.1854 10.0147 15.2001 12.5 15.2001Z" stroke="#D75C41" stroke-width="1.6" stroke-miterlimit="10"/>
<path d="M5.07461 4.28755V3.05005H3.72461V4.28755" stroke="#D75C41" stroke-width="1.6" stroke-linecap="round" stroke-linejoin="round"/>
</svg>
