<svg width="24" height="24" viewBox="0 0 24 24" fill="none" xmlns="http://www.w3.org/2000/svg">
<path fill-rule="evenodd" clip-rule="evenodd" d="M14.5027 17.5395C14.8314 17.6032 15.1705 17.6366 15.5168 17.6366C18.4439 17.6366 20.8167 15.2637 20.8167 12.3366C20.8167 12.2227 20.8131 12.1096 20.806 11.9973C21.308 11.187 21.598 10.2308 21.598 9.20915C21.598 7.29619 20.5844 5.62153 19.0685 4.69026C18.4956 2.58044 16.6539 0.993845 14.4119 0.801581C13.5983 0.293644 12.6364 0 11.6083 0C10.1175 0 8.76989 0.61655 7.80797 1.60582C5.34724 1.91759 3.41331 3.91535 3.19997 6.40541C2.69206 7.21902 2.39844 8.18092 2.39844 9.20896C2.39844 10.2311 2.68868 11.1877 3.19107 11.9982C3.184 12.1101 3.18042 12.2229 3.18042 12.3364C3.18042 15.2635 5.5533 17.6364 8.48039 17.6364C8.82655 17.6364 9.16556 17.6031 9.49416 17.5394C9.46892 18.652 9.33625 20.0706 9.21291 21.1828C9.04856 22.6649 10.1989 24 11.7188 24H12.2781C13.798 24 14.9483 22.6649 14.784 21.1828C14.6606 20.0707 14.528 18.6521 14.5027 17.5395ZM11.6083 2C10.5825 2 9.66651 2.46691 9.05966 3.20356L8.77661 3.54716L8.33186 3.56676C6.61198 3.64256 5.23335 5.0366 5.18192 6.76281L5.17296 7.06359L4.99949 7.30948C4.62074 7.84636 4.39844 8.50021 4.39844 9.20896C4.39844 9.93613 4.63247 10.6057 5.02957 11.1504L5.26759 11.4768L5.21201 11.877C5.19123 12.0267 5.18042 12.18 5.18042 12.3364C5.18042 14.1589 6.65787 15.6364 8.48039 15.6364C8.66254 15.6364 8.84082 15.6217 9.01424 15.5936C8.4436 15.105 8.03147 14.68 7.73873 14.3385C7.52565 14.0899 7.37625 13.886 7.27531 13.7346C7.22486 13.6589 7.1866 13.5965 7.15859 13.5483C7.14459 13.5241 7.13316 13.5036 7.12407 13.4867L7.11215 13.4643L7.10745 13.4551L7.10541 13.4511L7.10446 13.4492L7.104 13.4483C7.104 13.4483 7.10356 13.4474 7.99442 13.002L7.104 13.4483C6.85701 12.9543 7.0568 12.3528 7.55077 12.1058C8.03983 11.8613 8.63348 12.0551 8.88494 12.5383L8.88817 12.544C8.89532 12.5563 8.91174 12.5837 8.93941 12.6252C8.99473 12.7082 9.09532 12.848 9.25724 13.0369C9.43896 13.2489 9.69845 13.5234 10.0586 13.8489C10.3843 13.1094 11.0065 12.2954 11.9985 12.2954C12.8474 12.2954 13.4255 12.8917 13.7788 13.5272C13.9693 13.3394 14.1206 13.1749 14.2388 13.0369C14.4008 12.848 14.5014 12.7082 14.5567 12.6252C14.5844 12.5837 14.6008 12.5563 14.6079 12.544L14.6112 12.5383C14.8626 12.0551 15.4563 11.8613 15.9453 12.1058C16.4393 12.3528 16.6395 12.9535 16.3925 13.4474L15.5005 13.0014C16.3925 13.4474 16.3925 13.4474 16.3925 13.4474L16.3916 13.4492L16.3907 13.4511L16.3886 13.4551L16.3839 13.4643L16.372 13.4867C16.3629 13.5036 16.3515 13.5241 16.3375 13.5483C16.3095 13.5965 16.2712 13.6589 16.2208 13.7346C16.1198 13.886 15.9704 14.0899 15.7574 14.3385C15.4827 14.6589 15.103 15.0528 14.5859 15.5037C14.8802 15.59 15.1923 15.6366 15.5168 15.6366C17.3393 15.6366 18.8167 14.1591 18.8167 12.3366C18.8167 12.18 18.8059 12.0265 18.7851 11.8766L18.7294 11.4764L18.9673 11.1499C19.3641 10.6054 19.598 9.93604 19.598 9.20915C19.598 7.90935 18.8466 6.78317 17.75 6.24472L17.2919 6.01977L17.2053 5.51679C16.9434 3.99588 15.6379 2.83085 14.0544 2.78349L13.7537 2.7745L13.5078 2.60106C12.9709 2.2223 12.3171 2 11.6083 2ZM11.4984 17.1816C11.4984 15.9675 11.6763 15.1446 11.8844 14.6652C11.9248 14.5723 11.9636 14.4986 11.9984 14.4408C12.0333 14.4986 12.0721 14.5723 12.1124 14.6653C12.3206 15.1446 12.4984 15.9675 12.4984 17.1816C12.4984 18.4543 12.6587 20.1642 12.7961 21.4032C12.8323 21.7294 12.5775 22 12.2781 22H11.7188C11.4194 22 11.1646 21.7294 11.2007 21.4032C11.3381 20.1642 11.4984 18.4543 11.4984 17.1816Z" fill="#7E766B"/>
</svg>
