<svg width="24" height="24" viewBox="0 0 24 24" fill="none" xmlns="http://www.w3.org/2000/svg">
<path d="M16 14.2H8C7.73478 14.2 7.48043 14.3159 7.29289 14.5222C7.10536 14.7285 7 15.0083 7 15.3C7 15.5917 7.10536 15.8715 7.29289 16.0778C7.48043 16.2841 7.73478 16.4 8 16.4H16C16.2652 16.4 16.5196 16.2841 16.7071 16.0778C16.8946 15.8715 17 15.5917 17 15.3C17 15.0083 16.8946 14.7285 16.7071 14.5222C16.5196 14.3159 16.2652 14.2 16 14.2ZM16 9.8H10C9.73478 9.8 9.48043 9.91589 9.29289 10.1222C9.10536 10.3285 9 10.6083 9 10.9C9 11.1917 9.10536 11.4715 9.29289 11.6778C9.48043 11.8841 9.73478 12 10 12H16C16.2652 12 16.5196 11.8841 16.7071 11.6778C16.8946 11.4715 17 11.1917 17 10.9C17 10.6083 16.8946 10.3285 16.7071 10.1222C16.5196 9.91589 16.2652 9.8 16 9.8ZM20 3.2H17V2.1C17 1.80826 16.8946 1.52847 16.7071 1.32218C16.5196 1.11589 16.2652 1 16 1C15.7348 1 15.4804 1.11589 15.2929 1.32218C15.1054 1.52847 15 1.80826 15 2.1V3.2H13V2.1C13 1.80826 12.8946 1.52847 12.7071 1.32218C12.5196 1.11589 12.2652 1 12 1C11.7348 1 11.4804 1.11589 11.2929 1.32218C11.1054 1.52847 11 1.80826 11 2.1V3.2H9V2.1C9 1.80826 8.89464 1.52847 8.70711 1.32218C8.51957 1.11589 8.26522 1 8 1C7.73478 1 7.48043 1.11589 7.29289 1.32218C7.10536 1.52847 7 1.80826 7 2.1V3.2H4C3.73478 3.2 3.48043 3.31589 3.29289 3.52218C3.10536 3.72847 3 4.00826 3 4.3V19.7C3 20.5752 3.31607 21.4146 3.87868 22.0335C4.44129 22.6523 5.20435 23 6 23H18C18.7956 23 19.5587 22.6523 20.1213 22.0335C20.6839 21.4146 21 20.5752 21 19.7V4.3C21 4.00826 20.8946 3.72847 20.7071 3.52218C20.5196 3.31589 20.2652 3.2 20 3.2ZM19 19.7C19 19.9917 18.8946 20.2715 18.7071 20.4778C18.5196 20.6841 18.2652 20.8 18 20.8H6C5.73478 20.8 5.48043 20.6841 5.29289 20.4778C5.10536 20.2715 5 19.9917 5 19.7V5.4H7V6.5C7 6.79174 7.10536 7.07153 7.29289 7.27782C7.48043 7.48411 7.73478 7.6 8 7.6C8.26522 7.6 8.51957 7.48411 8.70711 7.27782C8.89464 7.07153 9 6.79174 9 6.5V5.4H11V6.5C11 6.79174 11.1054 7.07153 11.2929 7.27782C11.4804 7.48411 11.7348 7.6 12 7.6C12.2652 7.6 12.5196 7.48411 12.7071 7.27782C12.8946 7.07153 13 6.79174 13 6.5V5.4H15V6.5C15 6.79174 15.1054 7.07153 15.2929 7.27782C15.4804 7.48411 15.7348 7.6 16 7.6C16.2652 7.6 16.5196 7.48411 16.7071 7.27782C16.8946 7.07153 17 6.79174 17 6.5V5.4H19V19.7Z" fill="#D75C41"/>
</svg>
