<svg width="20" height="25" viewBox="0 0 20 25" fill="none" xmlns="http://www.w3.org/2000/svg">
<path d="M5.5 3.25V16.75C5.5 17.3467 5.73705 17.919 6.15901 18.341C6.58097 18.7629 7.15326 19 7.75 19H16.75C17.3467 19 17.919 18.7629 18.341 18.341C18.7629 17.919 19 17.3467 19 16.75V6.89725C19 6.5975 18.94 6.30079 18.8237 6.02453C18.7074 5.74826 18.5371 5.49802 18.3228 5.2885L14.5934 1.64125C14.173 1.23024 13.6085 1.00007 13.0206 1H7.75C7.15326 1 6.58097 1.23705 6.15901 1.65901C5.73705 2.08097 5.5 2.65326 5.5 3.25Z" stroke="#D75C41" stroke-width="2" stroke-linecap="round" stroke-linejoin="round"/>
<path d="M14.5 19V21.25C14.5 21.8467 14.2629 22.419 13.841 22.841C13.419 23.2629 12.8467 23.5 12.25 23.5H3.25C2.65326 23.5 2.08097 23.2629 1.65901 22.841C1.23705 22.419 1 21.8467 1 21.25V8.875C1 8.27826 1.23705 7.70597 1.65901 7.28401C2.08097 6.86205 2.65326 6.625 3.25 6.625H5.5" stroke="#D75C41" stroke-width="2" stroke-linecap="round" stroke-linejoin="round"/>
</svg>
