<svg width="24" height="24" viewBox="0 0 24 24" fill="none" xmlns="http://www.w3.org/2000/svg">
<g clip-path="url(#clip0_18_1252)">
<path fill-rule="evenodd" clip-rule="evenodd" d="M3.99924 2C3.99924 1.44772 4.44696 1 4.99924 1H18.9992C19.5515 1 19.9992 1.44772 19.9992 2V2.62004C19.9992 2.7468 19.998 2.87346 19.9955 3H21.154C22.7407 3 23.9193 4.46933 23.5751 6.01826L23.0779 8.25581C22.9963 8.6232 22.8806 8.98217 22.7323 9.32809C21.7776 11.5557 19.5873 13 17.1637 13H16.9291C16.7438 13.2857 16.5506 13.567 16.3496 13.8435C16.0555 14.2479 15.6636 14.5603 15.219 14.7579L15.78 17.0017C15.9066 17.0037 16.0273 17.0079 16.1375 17.017C16.3661 17.0356 16.6358 17.0797 16.9072 17.218C17.2836 17.4097 17.5895 17.7157 17.7813 18.092C17.9196 18.3634 17.9636 18.6332 17.9823 18.8618C17.9993 19.0699 17.9993 19.3156 17.9992 19.568V20.4319C17.9993 20.6842 17.9993 20.9301 17.9823 21.1382C17.9636 21.3668 17.9196 21.6366 17.7813 21.908C17.5895 22.2843 17.2836 22.5903 16.9072 22.782C16.6358 22.9203 16.3661 22.9644 16.1375 22.9831C15.9293 23.0001 15.6835 23 15.4311 23H8.56735C8.31497 23 8.06918 23.0001 7.86102 22.9831C7.63242 22.9644 7.36269 22.9203 7.09127 22.782C6.71494 22.5903 6.40898 22.2843 6.21723 21.908C6.07894 21.6366 6.03487 21.3668 6.01619 21.1382C5.99919 20.9301 5.99921 20.6843 5.99924 20.4319V19.5681C5.99921 19.3157 5.99919 19.0699 6.01619 18.8618C6.03487 18.6332 6.07894 18.3634 6.21723 18.092C6.40898 17.7157 6.71494 17.4097 7.09127 17.218C7.36269 17.0797 7.63242 17.0356 7.86102 17.017C7.9709 17.008 8.09127 17.0037 8.21755 17.0018L8.7786 14.7576C8.33437 14.5599 7.94282 14.2476 7.64893 13.8435C7.44785 13.567 7.25463 13.2857 7.06939 13H6.83476C4.41121 13 2.22085 11.5557 1.26617 9.32809C1.11792 8.98217 1.00223 8.6232 0.920584 8.25581L0.423349 6.01826C0.0791426 4.46933 1.25779 3 2.84451 3H4.00302C4.0005 2.87346 3.99924 2.7468 3.99924 2.62004V2ZM4.14822 5H2.84451C2.53729 5 2.30908 5.28449 2.37572 5.5844L2.87296 7.82195C2.92765 8.06806 3.00515 8.30853 3.10446 8.54025C3.61583 9.73345 4.65644 10.5912 5.88297 10.887C4.99192 9.03327 4.40531 7.04522 4.14822 5ZM18.1155 10.887C19.0066 9.03326 19.5932 7.04522 19.8503 5H21.154C21.4612 5 21.6894 5.28449 21.6228 5.5844L21.1255 7.82195C21.0708 8.06806 20.9933 8.30853 20.894 8.54025C20.3827 9.73345 19.342 10.5912 18.1155 10.887ZM9.92002 13H14.0785C14.337 13 14.58 12.8763 14.7321 12.6672C16.7809 9.85004 17.9177 6.47648 17.995 3H6.00347C6.08078 6.47648 7.21758 9.85004 9.2664 12.6672C9.41849 12.8763 9.66145 13 9.92002 13ZM10.7795 15L10.2795 17H13.718L13.218 15H10.7795ZM8.0107 19.0115L8.00955 19.0246C8.00002 19.1412 7.99925 19.3035 7.99925 19.6V20.4C7.99925 20.6965 8.00002 20.8588 8.00955 20.9754L8.0107 20.9886L8.02388 20.9897C8.14047 20.9992 8.30272 21 8.59925 21H15.3992C15.6958 21 15.858 20.9992 15.9746 20.9897L15.9878 20.9886L15.9889 20.9754C15.9985 20.8588 15.9992 20.6965 15.9992 20.4V19.6C15.9992 19.3035 15.9985 19.1412 15.9889 19.0246L15.9878 19.0115L15.9746 19.0103C15.858 19.0008 15.6958 19 15.3992 19H8.59925C8.30272 19 8.14047 19.0008 8.02388 19.0103L8.0107 19.0115Z" fill="#7E766B"/>
</g>
<defs>
<clipPath id="clip0_18_1252">
<rect width="24" height="24" fill="white"/>
</clipPath>
</defs>
</svg>
