<svg width="20" height="20" viewBox="0 0 20 20" fill="none" xmlns="http://www.w3.org/2000/svg">
<g clip-path="url(#clip0_107_4456)">
<path fill-rule="evenodd" clip-rule="evenodd" d="M10 6.66667C8.15905 6.66667 6.66667 8.15905 6.66667 10C6.66667 11.8409 8.15905 13.3333 10 13.3333C11.8409 13.3333 13.3333 11.8409 13.3333 10C13.3333 8.15905 11.8409 6.66667 10 6.66667ZM8.33333 10C8.33333 9.07952 9.07952 8.33333 10 8.33333C10.9205 8.33333 11.6667 9.07952 11.6667 10C11.6667 10.9205 10.9205 11.6667 10 11.6667C9.07952 11.6667 8.33333 10.9205 8.33333 10Z" fill="#D75C41"/>
<path fill-rule="evenodd" clip-rule="evenodd" d="M9.65978 0C8.41565 0 7.36085 0.914825 7.1849 2.14645L7.07236 2.93422L6.4349 2.45612C5.4396 1.70964 4.04686 1.80862 3.16713 2.68835L2.68598 3.1695C1.80625 4.04923 1.70728 5.44197 2.45375 6.43727L2.93048 7.0729L2.14645 7.1849C0.914824 7.36085 0 8.41565 0 9.65978V10.3402C0 11.5843 0.914825 12.6391 2.14645 12.8151L2.93214 12.9273L2.45562 13.5627C1.70915 14.558 1.80813 15.9507 2.68786 16.8305L3.169 17.3116C4.04873 18.1913 5.44147 18.2903 6.43677 17.5438L7.07254 17.067L7.1849 17.8536C7.36085 19.0852 8.41565 20 9.65978 20H10.3402C11.5843 20 12.6391 19.0852 12.8151 17.8536L12.9272 17.069L13.5604 17.5439C14.5557 18.2903 15.9484 18.1914 16.8281 17.3116L17.3093 16.8305C18.189 15.9508 18.288 14.558 17.5415 13.5627L17.0652 12.9277L17.8536 12.8151C19.0852 12.6391 20 11.5843 20 10.3402V9.65978C20 8.41565 19.0852 7.36085 17.8536 7.1849L17.0669 7.07253L17.5434 6.43724C18.2898 5.44194 18.1909 4.0492 17.3111 3.16947L16.83 2.68832C15.9503 1.8086 14.5575 1.70962 13.5622 2.45609L12.9274 2.93224L12.8151 2.14645C12.6391 0.914824 11.5843 0 10.3402 0H9.65978ZM8.83482 2.38215C8.89347 1.97161 9.24507 1.66667 9.65978 1.66667H10.3402C10.7549 1.66667 11.1065 1.97161 11.1652 2.38215L11.3708 3.82123C11.4148 4.12962 11.6272 4.38768 11.9214 4.49025C12.1321 4.56372 12.3373 4.64897 12.5363 4.74523C12.8169 4.88095 13.1498 4.84873 13.3992 4.66171L14.5622 3.78943C14.894 3.5406 15.3582 3.57359 15.6515 3.86684L16.1326 4.34798C16.4259 4.64123 16.4589 5.10547 16.21 5.43724L15.3379 6.60005C15.1509 6.84945 15.1187 7.18239 15.2545 7.46301C15.3508 7.66222 15.4362 7.86769 15.5098 8.07864C15.6123 8.3728 15.8704 8.58518 16.1788 8.62924L17.6178 8.83482C18.0284 8.89347 18.3333 9.24507 18.3333 9.65978V10.3402C18.3333 10.7549 18.0284 11.1065 17.6179 11.1652L16.1788 11.3708C15.8704 11.4148 15.6123 11.6272 15.5098 11.9214C15.436 12.1328 15.3505 12.3387 15.2538 12.5383C15.1179 12.819 15.1501 13.152 15.3372 13.4014L16.2082 14.5627C16.457 14.8945 16.424 15.3587 16.1308 15.652L15.6496 16.1331C15.3564 16.4264 14.8921 16.4594 14.5604 16.2105L13.3981 15.3388C13.1488 15.1518 12.8159 15.1196 12.5354 15.2552C12.3367 15.3513 12.1317 15.4364 11.9214 15.5098C11.6272 15.6123 11.4148 15.8704 11.3708 16.1788L11.1652 17.6178C11.1065 18.0284 10.7549 18.3333 10.3402 18.3333H9.65978C9.24507 18.3333 8.89347 18.0284 8.83482 17.6178L8.62924 16.1788C8.58518 15.8704 8.3728 15.6123 8.07865 15.5098C7.86772 15.4362 7.66228 15.3509 7.46309 15.2545C7.18247 15.1187 6.84954 15.1509 6.60015 15.338L5.43677 16.2105C5.105 16.4593 4.64076 16.4263 4.34751 16.1331L3.86637 15.652C3.57312 15.3587 3.54013 14.8945 3.78896 14.5627L4.66166 13.3991C4.84868 13.1497 4.8809 12.8168 4.74519 12.5362C4.64895 12.3373 4.56371 12.132 4.49025 11.9214C4.38768 11.6272 4.12962 11.4148 3.82123 11.3708L2.38215 11.1652C1.97161 11.1065 1.66667 10.7549 1.66667 10.3402V9.65978C1.66667 9.24507 1.97161 8.89347 2.38215 8.83482L3.82123 8.62924C4.12962 8.58518 4.38768 8.3728 4.49025 8.07865C4.56355 7.86842 4.64857 7.66363 4.74455 7.46506C4.88017 7.18449 4.84791 6.8517 4.66094 6.6024L3.78709 5.43727C3.53826 5.1055 3.57125 4.64125 3.8645 4.34801L4.34564 3.86687C4.63889 3.57362 5.10313 3.54063 5.4349 3.78945L6.59904 4.66256C6.84848 4.84964 7.18148 4.88182 7.46212 4.74598C7.66161 4.64941 7.86738 4.56391 8.07865 4.49025C8.3728 4.38768 8.58518 4.12962 8.62924 3.82123L8.83482 2.38215Z" fill="#D75C41"/>
</g>
<defs>
<clipPath id="clip0_107_4456">
<rect width="20" height="20" fill="white"/>
</clipPath>
</defs>
</svg>
