<svg width="16" height="20" viewBox="0 0 16 20" fill="none" xmlns="http://www.w3.org/2000/svg">
<path d="M11.3 7.03076H13.05C13.5142 7.03076 13.9593 7.21311 14.2875 7.53769C14.6157 7.86227 14.8 8.3025 14.8 8.76153V17.0692C14.8 17.5282 14.6157 17.9685 14.2875 18.2931C13.9593 18.6176 13.5142 18.8 13.05 18.8H2.55005C2.08592 18.8 1.6408 18.6176 1.31261 18.2931C0.984423 17.9685 0.800049 17.5282 0.800049 17.0692V8.76153C0.800049 8.3025 0.984423 7.86227 1.31261 7.53769C1.6408 7.21311 2.08592 7.03076 2.55005 7.03076H4.30005M11.3 4.26153L7.80005 0.799988M7.80005 0.799988L4.30005 4.26153M7.80005 0.799988V12.6125" stroke="#D75C41" stroke-width="1.6" stroke-linecap="round" stroke-linejoin="round"/>
</svg>
