<svg width="18" height="18" viewBox="0 0 18 18" fill="none" xmlns="http://www.w3.org/2000/svg">
<path fill-rule="evenodd" clip-rule="evenodd" d="M1.84119 10.1731C0.801942 5.32329 4.49906 0.75 9.45897 0.75C13.7617 0.75 17.2497 4.23802 17.2497 8.54072C17.2497 13.5006 12.6764 17.1978 7.82659 16.1585L6.3286 15.8375C6.14141 15.7974 5.9469 15.8082 5.76529 15.8687L3.53614 16.6118C2.20848 17.0543 0.945385 15.7912 1.38794 14.4636L2.13099 12.2344C2.19153 12.0528 2.2023 11.8583 2.16219 11.6711L1.84119 10.1731ZM9.45897 2.25C5.45402 2.25 2.46874 5.94276 3.30789 9.85881L3.62889 11.3568C3.72516 11.806 3.6993 12.2729 3.55401 12.7087L2.81096 14.9379C2.75929 15.0929 2.90677 15.2404 3.0618 15.1887L5.29095 14.4457C5.72681 14.3004 6.19365 14.2745 6.64289 14.3708L8.14088 14.6918C12.0569 15.531 15.7497 12.5457 15.7497 8.54072C15.7497 5.06645 12.9332 2.25 9.45897 2.25Z" fill="#D75C41"/>
</svg>
