<svg width="24" height="24" viewBox="0 0 24 24" fill="none" xmlns="http://www.w3.org/2000/svg">
<g clip-path="url(#clip0_18_1002)">
<path fill-rule="evenodd" clip-rule="evenodd" d="M10.0388 1.67216C11.1651 0.69945 12.8344 0.69945 13.9607 1.67216L23.6531 10.0433C24.071 10.4042 24.1174 11.0354 23.7566 11.4534C23.3956 11.8713 22.7644 11.9177 22.3464 11.5569L20.9997 10.3938V19.0003C20.9996 21.2093 19.2088 23.0003 16.9997 23.0003H6.99973C4.79071 23.0002 2.99987 21.2093 2.99973 19.0003V10.3938L1.65305 11.5569C1.23508 11.9177 0.603823 11.8713 0.242897 11.4534C-0.117911 11.0354 -0.0714797 10.4042 0.346412 10.0433L10.0388 1.67216ZM12.6531 3.18583C12.2777 2.86183 11.7218 2.86183 11.3464 3.18583L4.99973 8.6663V19.0003C4.99987 20.1047 5.89528 21.0002 6.99973 21.0003H9.99973V15.0003C9.99973 14.448 10.4475 14.0003 10.9997 14.0003H12.9997C13.552 14.0003 13.9997 14.448 13.9997 15.0003V21.0003H16.9997C18.1042 21.0003 18.9996 20.1047 18.9997 19.0003V8.6663L12.6531 3.18583Z" fill="#7E766B"/>
</g>
<defs>
<clipPath id="clip0_18_1002">
<rect width="24" height="24" fill="white"/>
</clipPath>
</defs>
</svg>
