<svg width="18" height="18" viewBox="0 0 18 18" fill="none" xmlns="http://www.w3.org/2000/svg">
<g clip-path="url(#clip0_206_12686)">
<path d="M9 0.75C7.34315 0.75 6 2.09315 6 3.75V8.25C6 9.90685 7.34315 11.25 9 11.25C10.6569 11.25 12 9.90685 12 8.25V3.75C12 2.09315 10.6569 0.75 9 0.75Z" fill="#D75C41"/>
<path d="M4.5 7.5C4.5 7.08579 4.16421 6.75 3.75 6.75C3.33579 6.75 3 7.08579 3 7.5V8.25C3 11.3097 5.29027 13.8345 8.25 14.2036V15.75H6.75C6.33579 15.75 6 16.0858 6 16.5C6 16.9142 6.33579 17.25 6.75 17.25H11.25C11.6642 17.25 12 16.9142 12 16.5C12 16.0858 11.6642 15.75 11.25 15.75H9.75V14.2036C12.7097 13.8345 15 11.3097 15 8.25V7.5C15 7.08579 14.6642 6.75 14.25 6.75C13.8358 6.75 13.5 7.08579 13.5 7.5V8.25C13.5 10.7353 11.4853 12.75 9 12.75C6.51472 12.75 4.5 10.7353 4.5 8.25V7.5Z" fill="#D75C41"/>
</g>
<defs>
<clipPath id="clip0_206_12686">
<rect width="18" height="18" fill="white"/>
</clipPath>
</defs>
</svg>
