<svg width="18" height="20" viewBox="0 0 18 20" fill="none" xmlns="http://www.w3.org/2000/svg">
<path d="M11.2329 15.5385V16.2308C11.2329 16.9652 10.9458 17.6696 10.4347 18.1889C9.9237 18.7082 9.2306 19 8.50789 19C7.78519 19 7.09208 18.7082 6.58105 18.1889C6.07003 17.6696 5.78293 16.9652 5.78293 16.2308V15.5385M15.8176 14.1292C14.7242 12.7692 13.9523 12.0769 13.9523 8.32764C13.9523 4.89423 12.227 3.67101 10.8071 3.07692C10.6185 2.99817 10.4409 2.81731 10.3834 2.62043C10.1344 1.75894 9.43608 1 8.50789 1C7.5797 1 6.88101 1.75938 6.63448 2.6213C6.577 2.82034 6.39945 2.99817 6.21084 3.07692C4.78917 3.67188 3.06563 4.89077 3.06563 8.32764C3.0635 12.0769 2.29157 12.7692 1.19818 14.1292C0.745158 14.6925 1.14198 15.5385 1.93435 15.5385H15.0857C15.8738 15.5385 16.2681 14.69 15.8176 14.1292Z" stroke="#D75C41" stroke-width="2" stroke-linecap="round" stroke-linejoin="round"/>
</svg>
