<svg width="14" height="18" viewBox="0 0 14 18" fill="none" xmlns="http://www.w3.org/2000/svg">
<path d="M0 18V1.87665C0 1.34168 0.180055 0.895355 0.540166 0.537677C0.900277 0.18 1.34867 0.000774193 1.88533 0H12.1158C12.6525 0 13.1009 0.179226 13.461 0.537677C13.8211 0.896129 14.0008 1.34245 14 1.87665V18L7 15.0074L0 18ZM1.16667 16.2L7 13.7032L12.8333 16.2V1.87665C12.8333 1.69781 12.7587 1.53368 12.6093 1.38426C12.46 1.23484 12.2951 1.16052 12.1147 1.16129H1.88533C1.70567 1.16129 1.54078 1.23561 1.39067 1.38426C1.24056 1.5329 1.16589 1.69703 1.16667 1.87665V16.2Z" fill="#D75C41"/>
</svg>
