<svg width="19" height="19" viewBox="0 0 19 19" fill="none" xmlns="http://www.w3.org/2000/svg">
<path fill-rule="evenodd" clip-rule="evenodd" d="M7.5 0C3.35786 0 0 3.35786 0 7.5C0 11.6421 3.35786 15 7.5 15C9.27085 15 10.8983 14.3863 12.1814 13.3599L16.9107 18.0893C17.2362 18.4147 17.7638 18.4147 18.0893 18.0893C18.4147 17.7638 18.4147 17.2362 18.0893 16.9107L13.3599 12.1814C14.3863 10.8983 15 9.27085 15 7.5C15 3.35786 11.6421 0 7.5 0ZM1.66667 7.5C1.66667 4.27834 4.27834 1.66667 7.5 1.66667C10.7217 1.66667 13.3333 4.27834 13.3333 7.5C13.3333 10.7217 10.7217 13.3333 7.5 13.3333C4.27834 13.3333 1.66667 10.7217 1.66667 7.5Z" fill="#D75C41"/>
</svg>
